<?xml version="1.0" encoding="utf-8"?>
<!-- Generator: Adobe Illustrator 15.0.0, SVG Export Plug-In . SVG Version: 6.00 Build 0)  -->
<svg version="1.2" baseProfile="tiny" id="Layer_1" xmlns="http://www.w3.org/2000/svg" xmlns:xlink="http://www.w3.org/1999/xlink"
	 x="0px" y="0px" width="36px" height="36px" viewBox="494 366 36 36" xml:space="preserve">
<path fill="#666666" d="M512.049,369c-8.328,0-15.049,6.88-15.049,15.403c0,6.777,4.313,12.527,10.333,14.581
	c0.803,0.104,1.003-0.307,1.003-0.716v-2.672c-4.214,0.924-5.117-2.055-5.117-2.055c-0.703-1.745-1.706-2.259-1.706-2.259
	c-1.405-0.924,0.1-0.924,0.1-0.924c1.505,0.102,2.309,1.54,2.309,1.54c1.304,2.362,3.511,1.643,4.414,1.233
	c0.101-1.027,0.501-1.645,1.003-2.055c-3.311-0.41-6.823-1.746-6.823-7.599c0-1.643,0.602-3.081,1.505-4.108
	c-0.202-0.41-0.703-1.95,0.1-4.106c0,0,1.304-0.411,4.114,1.54c1.204-0.308,2.508-0.513,3.812-0.513
	c1.304,0,2.608,0.205,3.813,0.513c2.91-1.95,4.113-1.54,4.113-1.54c0.804,2.156,0.302,3.696,0.101,4.106
	c1.003,1.027,1.505,2.465,1.505,4.108c0,5.957-3.511,7.189-6.822,7.599c0.503,0.515,1.003,1.438,1.003,2.875v4.211
	c0,0.411,0.302,0.925,1.004,0.719c6.021-2.053,10.234-7.805,10.234-14.582C527.098,375.88,520.375,369,512.049,369z"/>
</svg>
