<?xml version="1.0" encoding="utf-8"?>
<!-- Generator: Adobe Illustrator 15.0.0, SVG Export Plug-In . SVG Version: 6.00 Build 0)  -->
<svg version="1.2" baseProfile="tiny" id="Layer_1" xmlns="http://www.w3.org/2000/svg" xmlns:xlink="http://www.w3.org/1999/xlink"
	 x="0px" y="0px" width="64px" height="64px" viewBox="-32 -32 64 64" xml:space="preserve">
<path fill="#F23602" d="M16-32C7.16-32,0-24.84,0-16S7.16,0,16,0s16-7.16,16-16S24.84-32,16-32z M25.5-6.5
	c-1.23,1.23-2.67,2.2-4.27,2.88c-0.41,0.17-0.82,0.32-1.24,0.45v-2.4c0-1.26-0.43-2.19-1.3-2.78c0.54-0.05,1.04-0.13,1.49-0.22
	c0.45-0.09,0.93-0.23,1.44-0.41s0.96-0.39,1.36-0.63c0.4-0.24,0.79-0.56,1.16-0.95c0.37-0.39,0.68-0.83,0.93-1.33
	s0.45-1.09,0.59-1.78s0.22-1.46,0.22-2.29c0-1.61-0.53-2.99-1.58-4.13c0.48-1.25,0.43-2.61-0.16-4.08l-0.39-0.05
	c-0.27-0.03-0.76,0.08-1.46,0.34c-0.7,0.26-1.49,0.69-2.37,1.28c-1.24-0.34-2.53-0.52-3.86-0.52c-1.34,0-2.63,0.17-3.84,0.52
	c-0.55-0.38-1.08-0.69-1.57-0.93c-0.5-0.25-0.89-0.41-1.19-0.5c-0.3-0.09-0.57-0.14-0.83-0.16c-0.26-0.02-0.42-0.03-0.49-0.02
	c-0.07,0.01-0.13,0.02-0.16,0.03c-0.58,1.48-0.64,2.84-0.16,4.08c-1.05,1.14-1.58,2.51-1.58,4.13c0,0.83,0.07,1.6,0.22,2.29
	s0.34,1.29,0.59,1.78c0.25,0.49,0.56,0.94,0.93,1.33c0.37,0.39,0.75,0.71,1.16,0.95c0.4,0.24,0.85,0.46,1.36,0.63
	c0.5,0.18,0.98,0.31,1.44,0.41c0.45,0.09,0.95,0.17,1.49,0.22c-0.85,0.58-1.28,1.51-1.28,2.78v2.44c-0.47-0.14-0.94-0.31-1.39-0.5
	C9.17-4.29,7.73-5.26,6.5-6.5s-2.2-2.67-2.88-4.27c-0.7-1.65-1.06-3.41-1.06-5.23c0-1.82,0.35-3.58,1.06-5.23
	c0.68-1.6,1.65-3.04,2.88-4.27s2.67-2.2,4.27-2.88c1.65-0.7,3.42-1.06,5.23-1.06c1.81,0,3.58,0.35,5.23,1.06
	c1.6,0.68,3.04,1.65,4.27,2.88s2.2,2.67,2.88,4.27c0.7,1.65,1.05,3.42,1.05,5.23c0,1.82-0.35,3.58-1.05,5.23
	C27.71-9.17,26.74-7.73,25.5-6.5L25.5-6.5z"/>
<path fill="#666666" d="M16,0C7.16,0,0,7.16,0,16s7.16,16,16,16s16-7.16,16-16S24.84,0,16,0z M25.5,25.5
	c-1.23,1.23-2.67,2.2-4.27,2.88c-0.41,0.17-0.82,0.32-1.24,0.45v-2.4c0-1.26-0.43-2.19-1.3-2.78c0.54-0.05,1.04-0.13,1.49-0.22
	c0.45-0.09,0.93-0.23,1.44-0.41s0.96-0.39,1.36-0.63c0.4-0.24,0.79-0.56,1.16-0.95c0.37-0.39,0.68-0.83,0.93-1.33
	s0.45-1.09,0.59-1.78s0.22-1.46,0.22-2.29c0-1.61-0.53-2.99-1.58-4.13c0.48-1.25,0.43-2.61-0.16-4.08L23.76,7.8
	C23.49,7.77,23,7.88,22.3,8.14c-0.7,0.26-1.49,0.69-2.37,1.28c-1.24-0.34-2.53-0.52-3.86-0.52c-1.34,0-2.63,0.17-3.84,0.52
	c-0.55-0.38-1.08-0.69-1.57-0.93c-0.5-0.25-0.89-0.41-1.19-0.5C9.17,7.9,8.9,7.85,8.64,7.83C8.39,7.81,8.22,7.8,8.15,7.81
	C8.08,7.82,8.02,7.83,7.99,7.84c-0.58,1.48-0.64,2.84-0.16,4.08c-1.05,1.14-1.58,2.51-1.58,4.13c0,0.83,0.07,1.6,0.22,2.29
	s0.34,1.29,0.59,1.78c0.25,0.49,0.56,0.94,0.93,1.33c0.37,0.39,0.75,0.71,1.16,0.95c0.4,0.24,0.85,0.46,1.36,0.63
	c0.5,0.18,0.98,0.31,1.44,0.41c0.45,0.09,0.95,0.17,1.49,0.22c-0.85,0.58-1.28,1.51-1.28,2.78v2.44c-0.47-0.14-0.94-0.31-1.39-0.5
	c-1.6-0.68-3.04-1.65-4.27-2.88s-2.2-2.67-2.88-4.27c-0.7-1.65-1.06-3.41-1.06-5.23c0-1.82,0.35-3.58,1.06-5.23
	C4.3,9.17,5.27,7.73,6.5,6.5s2.67-2.2,4.27-2.88c1.65-0.7,3.42-1.06,5.23-1.06c1.81,0,3.58,0.35,5.23,1.06
	c1.6,0.68,3.04,1.65,4.27,2.88s2.2,2.67,2.88,4.27c0.7,1.65,1.05,3.42,1.05,5.23c0,1.82-0.35,3.58-1.05,5.23
	C27.71,22.83,26.74,24.27,25.5,25.5L25.5,25.5z"/>
<path fill="#F23602" d="M0-28.92c-1.18,0.52-2.44,0.88-3.77,1.03c1.36-0.81,2.4-2.1,2.89-3.63c-1.27,0.75-2.67,1.3-4.17,1.59
	C-6.25-31.2-7.96-32-9.84-32c-3.63,0-6.56,2.94-6.56,6.56c0,0.52,0.06,1.02,0.17,1.5c-5.46-0.27-10.29-2.89-13.53-6.86
	c-0.56,0.97-0.89,2.1-0.89,3.3c0,2.28,1.16,4.29,2.92,5.46c-1.08-0.03-2.09-0.33-2.97-0.82c0,0.03,0,0.06,0,0.08
	c0,3.18,2.26,5.83,5.27,6.44c-0.55,0.15-1.13,0.23-1.73,0.23c-0.42,0-0.83-0.04-1.23-0.12c0.83,2.61,3.26,4.51,6.13,4.56
	c-2.25,1.76-5.08,2.81-8.15,2.81c-0.53,0-1.05-0.03-1.57-0.09C-29.1-7.08-25.64-6-21.94-6C-9.86-6-3.26-16-3.26-24.68
	c0-0.29-0.01-0.57-0.02-0.85C-1.99-26.45-0.88-27.61,0-28.92L0-28.92z"/>
<path fill="#666666" d="M0,3.08C-1.18,3.6-2.44,3.95-3.77,4.11c1.36-0.81,2.4-2.1,2.89-3.63c-1.27,0.75-2.67,1.3-4.17,1.59
	C-6.25,0.8-7.96,0-9.84,0c-3.63,0-6.56,2.94-6.56,6.56c0,0.52,0.06,1.02,0.17,1.5c-5.46-0.27-10.29-2.89-13.53-6.86
	c-0.56,0.97-0.89,2.1-0.89,3.3c0,2.28,1.16,4.29,2.92,5.46c-1.08-0.03-2.09-0.33-2.97-0.82c0,0.03,0,0.06,0,0.08
	c0,3.18,2.26,5.83,5.27,6.44c-0.55,0.15-1.13,0.23-1.73,0.23c-0.42,0-0.83-0.04-1.23-0.12c0.83,2.61,3.26,4.51,6.13,4.56
	c-2.25,1.76-5.08,2.81-8.15,2.81c-0.53,0-1.05-0.03-1.57-0.09c2.9,1.86,6.36,2.95,10.06,2.95C-9.86,26-3.26,16-3.26,7.33
	c0-0.29-0.01-0.57-0.02-0.85C-1.99,5.55-0.88,4.39,0,3.08L0,3.08z"/>
</svg>
