<?xml version="1.0" encoding="utf-8"?>
<!-- Generator: Adobe Illustrator 15.0.0, SVG Export Plug-In . SVG Version: 6.00 Build 0)  -->
<svg version="1.2" baseProfile="tiny" id="Layer_1" xmlns="http://www.w3.org/2000/svg" xmlns:xlink="http://www.w3.org/1999/xlink"
	 x="0px" y="0px" width="64px" height="64px" viewBox="0 0 64 64" xml:space="preserve">
<path fill="#F53200" d="M48.05,0C39.17,0,32,7.34,32,16.43c0,7.23,4.6,13.36,11.02,15.55c0.86,0.11,1.07-0.33,1.07-0.76v-2.85
	c-4.5,0.99-5.46-2.19-5.46-2.19c-0.75-1.86-1.82-2.41-1.82-2.41c-1.5-0.99,0.11-0.99,0.11-0.99c1.61,0.11,2.46,1.64,2.46,1.64
	c1.39,2.52,3.74,1.75,4.71,1.32c0.11-1.1,0.53-1.75,1.07-2.19c-3.53-0.44-7.28-1.86-7.28-8.11c0-1.75,0.64-3.29,1.6-4.38
	c-0.21-0.44-0.75-2.08,0.11-4.38c0,0,1.39-0.44,4.39,1.64c1.28-0.33,2.67-0.55,4.07-0.55c1.39,0,2.78,0.22,4.07,0.55
	c3.1-2.08,4.39-1.64,4.39-1.64c0.86,2.3,0.32,3.94,0.11,4.38c1.07,1.1,1.61,2.63,1.61,4.38c0,6.35-3.75,7.67-7.28,8.11
	c0.54,0.55,1.07,1.53,1.07,3.07v4.49c0,0.44,0.32,0.99,1.07,0.77C59.5,29.68,64,23.55,64,16.32C64.1,7.34,56.93,0,48.05,0z"/>
<path fill="#968282" d="M48.05,32C39.17,32,32,39.34,32,48.43c0,7.23,4.6,13.36,11.02,15.55c0.86,0.11,1.07-0.33,1.07-0.76v-2.85
	c-4.5,0.99-5.46-2.19-5.46-2.19c-0.75-1.86-1.82-2.41-1.82-2.41c-1.5-0.99,0.11-0.99,0.11-0.99c1.61,0.11,2.46,1.64,2.46,1.64
	c1.39,2.52,3.74,1.75,4.71,1.32c0.11-1.1,0.53-1.75,1.07-2.19c-3.53-0.44-7.28-1.86-7.28-8.11c0-1.75,0.64-3.29,1.6-4.38
	c-0.21-0.44-0.75-2.08,0.11-4.38c0,0,1.39-0.44,4.39,1.64c1.28-0.33,2.67-0.55,4.07-0.55c1.39,0,2.78,0.22,4.07,0.55
	c3.1-2.08,4.39-1.64,4.39-1.64c0.86,2.3,0.32,3.94,0.11,4.38c1.07,1.1,1.61,2.63,1.61,4.38c0,6.35-3.75,7.67-7.28,8.11
	c0.54,0.55,1.07,1.53,1.07,3.07v4.49c0,0.44,0.32,0.99,1.07,0.77C59.5,61.68,64,55.55,64,48.32C64.1,39.34,56.93,32,48.05,32z"/>
<path fill="#F53200" d="M31.99,3.08c-1.18,0.52-2.44,0.88-3.77,1.03c1.36-0.81,2.4-2.1,2.89-3.63c-1.27,0.75-2.67,1.3-4.17,1.59
	C25.74,0.8,24.02,0,22.14,0c-3.63,0-6.56,2.94-6.56,6.56c0,0.52,0.06,1.02,0.17,1.5C10.29,7.79,5.45,5.17,2.21,1.2
	C1.65,2.17,1.32,3.3,1.32,4.5c0,2.28,1.16,4.29,2.92,5.46C3.16,9.93,2.15,9.63,1.27,9.14c0,0.03,0,0.06,0,0.08
	c0,3.18,2.26,5.83,5.27,6.44c-0.55,0.15-1.13,0.23-1.73,0.23c-0.42,0-0.83-0.04-1.23-0.12c0.83,2.61,3.26,4.51,6.13,4.56
	c-2.25,1.76-5.08,2.81-8.16,2.81c-0.53,0-1.05-0.03-1.57-0.09C2.87,24.92,6.33,26,10.04,26c12.09,0,18.69-10,18.69-18.68
	c0-0.29-0.01-0.57-0.02-0.85C30,5.55,31.11,4.39,31.99,3.08L31.99,3.08z"/>
<path fill="#968282" d="M31.99,35.08c-1.18,0.52-2.44,0.88-3.77,1.03c1.36-0.81,2.4-2.1,2.89-3.63c-1.27,0.75-2.67,1.3-4.17,1.59
	C25.74,32.8,24.02,32,22.14,32c-3.63,0-6.56,2.94-6.56,6.56c0,0.52,0.06,1.02,0.17,1.5c-5.46-0.27-10.3-2.89-13.54-6.86
	c-0.56,0.97-0.89,2.1-0.89,3.3c0,2.28,1.16,4.29,2.92,5.46c-1.08-0.03-2.09-0.33-2.97-0.82c0,0.03,0,0.06,0,0.08
	c0,3.18,2.26,5.83,5.27,6.44c-0.55,0.15-1.13,0.23-1.73,0.23c-0.42,0-0.83-0.04-1.23-0.12c0.83,2.61,3.26,4.51,6.13,4.56
	c-2.25,1.76-5.08,2.81-8.16,2.81c-0.53,0-1.05-0.03-1.57-0.09C2.87,56.92,6.33,58,10.04,58c12.09,0,18.69-10,18.69-18.68
	c0-0.29-0.01-0.57-0.02-0.85C30,37.55,31.11,36.39,31.99,35.08L31.99,35.08z"/>
</svg>
