<?xml version="1.0" encoding="utf-8"?>
<!-- Generator: Adobe Illustrator 15.0.0, SVG Export Plug-In . SVG Version: 6.00 Build 0)  -->
<svg version="1.2" baseProfile="tiny"
	 id="svg2" xmlns:inkscape="http://www.inkscape.org/namespaces/inkscape" xmlns:rdf="http://www.w3.org/1999/02/22-rdf-syntax-ns#" xmlns:svg="http://www.w3.org/2000/svg" xmlns:cc="http://creativecommons.org/ns#" xmlns:dc="http://purl.org/dc/elements/1.1/" xmlns:sodipodi="http://sodipodi.sourceforge.net/DTD/sodipodi-0.dtd" sodipodi:docname="Twitter_bird_logo_2012.svg" inkscape:version="0.48.4 r9939"
	 xmlns="http://www.w3.org/2000/svg" xmlns:xlink="http://www.w3.org/1999/xlink" x="0px" y="0px" width="36px" height="36px"
	 viewBox="67.753 51.689 36 36" xml:space="preserve">
<sodipodi:namedview  id="base" inkscape:cy="50.181142" inkscape:zoom="3.7200571" showgrid="false" borderopacity="1.0" fit-margin-top="0" fit-margin-left="0" pagecolor="#ffffff" bordercolor="#666666" inkscape:cx="101.29413" inkscape:window-maximized="1" inkscape:pageshadow="2" inkscape:document-units="px" inkscape:window-x="-8" inkscape:window-y="-8" inkscape:pageopacity="0.0" fit-margin-bottom="0" inkscape:current-layer="layer1" inkscape:window-height="962" fit-margin-right="0" inkscape:window-width="1280">
	</sodipodi:namedview>
<g id="layer1" transform="translate(-282.32053,-396.30734)" inkscape:label="Layer 1" inkscape:groupmode="layer">
	<path id="path5" inkscape:connector-curvature="0" fill="#666666" d="M384.073,456.074c-1.177,0.522-2.442,0.875-3.771,1.034
		c1.354-0.813,2.396-2.099,2.886-3.632c-1.269,0.752-2.673,1.299-4.168,1.593c-1.197-1.275-2.904-2.072-4.792-2.072
		c-3.626,0-6.566,2.938-6.566,6.563c0,0.515,0.058,1.015,0.17,1.495c-5.456-0.273-10.293-2.887-13.532-6.857
		c-0.565,0.97-0.889,2.097-0.889,3.3c0,2.277,1.159,4.286,2.92,5.463c-1.076-0.034-2.088-0.329-2.973-0.82
		c-0.001,0.027-0.001,0.055-0.001,0.082c0,3.181,2.263,5.834,5.267,6.436c-0.551,0.15-1.131,0.23-1.73,0.23
		c-0.423,0-0.834-0.04-1.235-0.117c0.835,2.608,3.26,4.505,6.133,4.558c-2.247,1.761-5.078,2.811-8.154,2.811
		c-0.529,0-1.052-0.031-1.566-0.092c2.906,1.862,6.356,2.949,10.063,2.949c12.076,0,18.68-10.002,18.68-18.676
		c0-0.284-0.007-0.567-0.02-0.849C382.08,458.546,383.193,457.39,384.073,456.074L384.073,456.074z"/>
</g>
</svg>
